# xmcd
#
# Track frame offsets: 
#        150
#        13027
#        21417
#        31635
#        46510
#        54802
#        64290
#        78217
#        92292
#        101075
#        113112
#        130095
#        141782
#        154127
#        164197
#        172512
#        183830
#        194577
#        208047
#        220817
#
# Disc length: 3107 seconds
#
# Revision: 3
# Processed by: cddbd v1.5.2PL0 Copyright (c) Steve Scherf et al.
# Submitted via: ExactAudioCopyFreeDBPlugin 1.0
#
DISCID=000c2114
DTITLE=Willie Nelson - 20 Golden Hits
DYEAR=1989
DGENRE=Country
TTITLE0=Any Old Arms Won't Do
TTITLE1=Slow Down Old World
TTITLE2=Healing Hands Of Time
TTITLE3=And So Will You My Love
TTITLE4=Things To Remember
TTITLE5=One Step Beyond
TTITLE6=Undo The Wrong
TTITLE7=Home Is Where You're Happy
TTITLE8=Why Are You Picking On Me
TTITLE9=I Hope So
TTITLE10=I Let My Mind Wonder
TTITLE11=December Days
TTITLE12=I Can't Find The Time
TTITLE13=I Didn't Sleep A Wink
TTITLE14=You Wouldn't Cross The Street To Say Goodbye
TTITLE15=Suffering In Silence
TTITLE16=I Feel Sorry For Him
TTITLE17=You'll Always Have Someone
TTITLE18=I Just Don't Understand
TTITLE19=Pages
EXTD=YEAR: 1989
EXTT0=
EXTT1=
EXTT2=
EXTT3=
EXTT4=
EXTT5=
EXTT6=
EXTT7=
EXTT8=
EXTT9=
EXTT10=
EXTT11=
EXTT12=
EXTT13=
EXTT14=
EXTT15=
EXTT16=
EXTT17=
EXTT18=
EXTT19=
PLAYORDER=
